<?xml version="1.0" encoding="UTF-8" standalone="no"?>
<svg
   version="1.1"
   id="svg1"
   width="39.0005px"
   height="39.0001px"
   viewBox="0 0 39.000504 39.000076"
   sodipodi:docname="AdobeColor_fm3_recolored.svg"
   inkscape:export-filename="folder-mapper-icon.svg"
   inkscape:export-xdpi="630.14575"
   inkscape:export-ydpi="630.14575"
   inkscape:version="1.3.2 (091e20e, 2023-11-25, custom)"
   xmlns:inkscape="http://www.inkscape.org/namespaces/inkscape"
   xmlns:sodipodi="http://sodipodi.sourceforge.net/DTD/sodipodi-0.dtd"
   xmlns="http://www.w3.org/2000/svg"
   xmlns:svg="http://www.w3.org/2000/svg">
  <sodipodi:namedview
     id="namedview1"
     pagecolor="#ffffff"
     bordercolor="#000000"
     borderopacity="0.25"
     inkscape:showpageshadow="2"
     inkscape:pageopacity="0.0"
     inkscape:pagecheckerboard="0"
     inkscape:deskcolor="#d1d1d1"
     inkscape:zoom="7.6059115"
     inkscape:cx="9.0061526"
     inkscape:cy="28.92487"
     inkscape:window-width="1388"
     inkscape:window-height="1040"
     inkscape:window-x="3608"
     inkscape:window-y="98"
     inkscape:window-maximized="0"
     inkscape:current-layer="g1" />
  <defs
     id="defs1" />
  <g
     id="g1"
     transform="translate(-124,192)">
    <path
       id="path7-7-9-8-6"
       style="color:rgb(0, 0, 0);fill:none;fill-opacity:1;stroke:#565656;stroke-width:3;stroke-linecap:round;stroke-linejoin:round;stroke-miterlimit:100000;stroke-dasharray:none;stroke-opacity:1;paint-order:stroke"
       d="m 147.66261,-190.5 c -1.08238,0 -1.98633,0.90395 -1.98633,1.98632 v 0.33986 c 0,0.0257 0.003,0.0507 0.004,0.0762 -0.006,0.19032 -0.004,0.41929 -0.004,0.76562 0,0.47747 3.9e-4,1.17048 0.0117,1.74805 1e-5,6.3e-4 -1e-5,10e-4 0,0.002 -0.007,0.0836 -0.0117,0.16817 -0.0117,0.25391 v 4.58593 0.60742 c 0,2.05267 1.6828,3.73829 3.73633,3.73829 h 8.35156 c 2.05352,0 3.73633,-1.68562 3.73633,-3.73829 v -5.19335 c 0,-2.05267 -1.68367,-3.73633 -3.73633,-3.73633 h -5.69141 c -0.26348,-0.79143 -0.88818,-1.43559 -1.75781,-1.43559 z"
       inkscape:export-filename=".\folder-mapper-icon.png"
       inkscape:export-xdpi="630.14575"
       inkscape:export-ydpi="630.14575" />
    <path
       id="path7-7-9-8-2-9"
       style="color:rgb(0, 0, 0);fill:none;fill-opacity:1;stroke:#565656;stroke-width:3;stroke-linecap:round;stroke-linejoin:round;stroke-miterlimit:100000;stroke-dasharray:none;stroke-opacity:1;paint-order:stroke"
       d="m 127.48683,-190.49995 c -1.08238,0 -1.98633,0.90395 -1.98633,1.98632 v 0.33985 c 0,0.0257 0.003,0.0507 0.004,0.0762 -0.006,0.19033 -0.004,0.4193 -0.004,0.76563 0,0.47747 3.9e-4,1.17048 0.0117,1.74805 10e-6,6.3e-4 -1e-5,0.001 0,0.002 -0.007,0.0836 -0.0117,0.16817 -0.0117,0.25391 v 4.58593 0.60742 c 0,2.05267 1.6828,3.73829 3.73633,3.73829 h 8.35156 c 2.05352,0 3.73633,-1.68562 3.73633,-3.73829 v -5.19335 c 0,-2.05267 -1.68367,-3.73633 -3.73633,-3.73633 h -5.69141 c -0.26348,-0.79143 -0.88818,-1.43559 -1.75781,-1.43559 z" />
    <path
       id="path7-7-9-8-5-7"
       style="color:rgb(0, 0, 0);fill:none;fill-opacity:1;stroke:#565656;stroke-width:3;stroke-linecap:round;stroke-linejoin:round;stroke-miterlimit:100000;stroke-dasharray:none;stroke-opacity:1;paint-order:stroke"
       d="m 127.48683,-168.60352 c -1.08238,0 -1.98633,0.90395 -1.98633,1.98632 v 0.33985 c 0,0.0257 0.003,0.0507 0.004,0.0762 -0.006,0.19032 -0.004,0.4193 -0.004,0.76562 0,0.47747 3.9e-4,1.17048 0.0117,1.74805 10e-6,6.3e-4 -1e-5,0.001 0,0.002 -0.007,0.0836 -0.0117,0.16817 -0.0117,0.25391 v 4.58593 0.60743 c 0,2.05267 1.6828,3.73829 3.73633,3.73829 h 8.35156 c 2.05352,0 3.73633,-1.68562 3.73633,-3.73829 v -5.19335 c 0,-2.05267 -1.68367,-3.73633 -3.73633,-3.73633 h -5.69141 c -0.26348,-0.79143 -0.88818,-1.43559 -1.75781,-1.43559 z" />
    <path
       id="path27-9-97"
       style="color:rgb(0, 0, 0);fill:#fd6a52;fill-opacity:1;stroke-linecap:round;stroke-linejoin:round;stroke-miterlimit:100000;paint-order:stroke"
       d="m 84.911859,-90.449259 a 1.5,1.5 0 0 0 -1.5,1.5 v 4.552735 h 3 v -4.552735 a 1.5,1.5 0 0 0 -1.5,-1.5 z m -1.5,11.052735 v 0.832031 2.439453 c 0.445706,0.253613 0.839316,0.585768 1.1875,0.957031 h 1.8125 v -3.396484 -0.832031 z m 0,9.228515 v 3.117188 a 1.5,1.5 0 0 0 1.5,1.5 1.5,1.5 0 0 0 1.5,-1.5 v -3.117188 z"
       transform="translate(48.50025,-94.49996)" />
    <path
       id="path28-2-5"
       style="color:rgb(0, 0, 0);fill:#fd6a52;fill-opacity:1;stroke-linecap:round;stroke-linejoin:round;stroke-miterlimit:100000;paint-order:stroke"
       d="m 105.08178,-90.447306 a 1.5,1.5 0 0 0 -1.49414,1.503907 c 0.006,1.684269 -0.012,3.271188 -0.28516,4.546875 h 3.05469 c 0.25112,-1.529198 0.23548,-3.07876 0.23047,-4.556641 a 1.5,1.5 0 0 0 -1.50586,-1.494141 z m -7.085936,10.316407 c -1.00444,0.236543 -2.112799,0.449967 -3.244141,0.654297 -2.525754,0.456169 -5.132914,0.870597 -7.185547,1.982421 -1.108575,0.600469 -1.946971,1.412773 -2.564453,2.326172 h 4.085938 c 0.179225,0 0.355655,0.01024 0.53125,0.02539 1.386505,-0.564172 3.494498,-0.988667 5.666015,-1.380859 2.525857,-0.456191 5.129244,-0.86978 7.179684,-1.982422 0.47905,-0.259946 0.90658,-0.560517 1.28907,-0.890625 h -2.8418 c -1.05076,0 -2.043664,-0.266894 -2.916016,-0.734374 z m -14.507813,9.96289 c -0.07877,1.053096 -0.07617,2.102053 -0.07617,3.117188 a 1.5,1.5 0 0 0 1.5,1.5 1.5,1.5 0 0 0 1.5,-1.5 c 0,-1.099846 0.009,-2.158222 0.0918,-3.117188 z"
       transform="translate(48.50025,-94.49996)" />
  </g>
</svg>
